<svg width="49" height="30" viewBox="0 0 49 30" fill="none" xmlns="http://www.w3.org/2000/svg">
<path d="M4.37955e-05 6.96132C4.37955e-05 6.13256 1.09963 5.45994 2.39738 5.45994H45.936C47.2604 5.45994 48.3334 6.12806 48.3334 6.96132V27.9806C48.3334 28.8094 47.2338 29.482 45.936 29.482H2.39738C2.0811 29.4816 1.76807 29.4424 1.47623 29.3667C1.1844 29.2909 0.91951 29.1801 0.696771 29.0406C0.474031 28.9011 0.297823 28.7357 0.178261 28.5538C0.0586983 28.3719 -0.00186593 28.1771 4.37955e-05 27.9806V6.96132ZM29 24.9778C32.2047 24.9778 35.2782 24.1869 37.5442 22.7791C39.8103 21.3713 41.0834 19.4619 41.0834 17.471C41.0834 15.48 39.8103 13.5706 37.5442 12.1628C35.2782 10.755 32.2047 9.96408 29 9.96408C25.7953 9.96408 22.7219 10.755 20.4558 12.1628C18.1898 13.5706 16.9167 15.48 16.9167 17.471C16.9167 19.4619 18.1898 21.3713 20.4558 22.7791C22.7219 24.1869 25.7953 24.9778 29 24.9778ZM4.83338 8.4627V11.4655H12.0834V8.4627H4.83338ZM4.83338 0.955811H19.3334V3.95857H4.83338V0.955811Z" fill="black"/>
</svg>
