<svg width="20" height="16" viewBox="0 0 20 16" fill="none" xmlns="http://www.w3.org/2000/svg">
<path d="M19.543 2.49794C20 4.27994 20 7.99994 20 7.99994C20 7.99994 20 11.7199 19.543 13.5019C19.289 14.4869 18.546 15.2619 17.605 15.5239C15.896 15.9999 10 15.9999 10 15.9999C10 15.9999 4.107 15.9999 2.395 15.5239C1.45 15.2579 0.708 14.4839 0.457 13.5019C2.98023e-08 11.7199 0 7.99994 0 7.99994C0 7.99994 2.98023e-08 4.27994 0.457 2.49794C0.711 1.51294 1.454 0.737939 2.395 0.475939C4.107 -6.1214e-05 10 -6.10352e-05 10 -6.10352e-05C10 -6.10352e-05 15.896 -6.1214e-05 17.605 0.475939C18.55 0.741939 19.292 1.51594 19.543 2.49794V2.49794ZM8 11.4999L14 7.99994L8 4.49994V11.4999Z" fill="white"/>
</svg>
